<svg width="106" height="37" viewBox="0 0 106 37" fill="none" xmlns="http://www.w3.org/2000/svg">
<path fill-rule="evenodd" clip-rule="evenodd" d="M16.9331 0.0380392C12.0398 0.515778 8.14203 2.47582 4.79831 6.14068C1.26587 10.0122 -0.496093 15.4182 0.121628 20.4892C1.28849 30.0713 8.9672 37.0102 18.3923 37C24.3348 36.9934 29.2105 34.6277 33.0308 29.8974C36.2196 25.9495 37.583 20.0461 36.5256 14.7671C35.1724 8.01256 29.7727 2.29899 23.1634 0.628129C21.3671 0.174082 18.4093 -0.106064 16.9331 0.0380392ZM23.3779 2.02324C29.9948 4.14547 34.5255 9.54176 35.4317 16.3803C36.557 24.8729 31.1485 32.9136 22.7699 35.2043C20.2664 35.8887 15.8811 35.7927 13.4878 35.0009C8.14495 33.2333 4.04975 29.2529 2.26201 24.0898C0.938771 20.2691 1.11801 15.3108 2.70949 11.6957C4.96612 6.57055 9.33175 2.97823 14.866 1.69254C16.8791 1.22506 21.4413 1.40213 23.3779 2.02324ZM12.9121 6.14361C13.9284 10.1025 13.1378 13.677 10.7151 16.0757C10.117 16.6678 9.19191 17.3497 8.65956 17.5908C8.1272 17.8318 7.69163 18.1012 7.69163 18.1892C7.69163 18.2773 8.1486 18.5519 8.70747 18.7995C12.3926 20.4325 14.2806 25.6305 12.9026 30.3502C12.6969 31.0549 13.0128 31.051 14.7638 30.3275C17.6367 29.1405 19.2328 27.072 19.2226 24.5495C19.2107 21.6579 17.2026 19.5349 13.2852 18.272C13.0845 18.2072 13.5877 17.9459 14.4031 17.6909C16.8662 16.9211 18.8138 14.8455 19.2464 12.5298C19.7817 9.66388 17.0859 6.39225 13.5561 5.62435C12.745 5.44777 12.7353 5.45558 12.9121 6.14361ZM19.1219 5.65928C18.9213 5.72645 18.6007 5.83196 18.4096 5.89326C18.1946 5.96263 18.4261 6.18611 19.0176 6.47994C21.5417 7.73436 22.8832 9.72909 22.8744 12.2152C22.8662 14.6142 21.3583 16.7376 18.7639 18.0035L17.6943 18.5252L18.8914 19.0821C20.6477 19.8996 22.1966 21.6095 22.674 23.2589C23.5033 26.1236 22.219 28.7539 19.138 30.5007L18.0594 31.112L18.7732 31.3113C19.1657 31.4208 20.4716 31.506 21.6755 31.5004C23.6337 31.4916 24.0357 31.4073 25.4917 30.701C28.1761 29.3987 29.584 27.3722 29.574 24.825C29.5646 22.3642 28.1311 20.2877 25.6121 19.0853L24.391 18.5023L25.4949 18.0118C26.9592 17.3614 28.4614 15.9678 29.0789 14.6872C29.72 13.3568 29.7406 11.1301 29.1244 9.76768C28.4648 8.30931 26.4562 6.61598 24.6658 6.00879C23.2373 5.52421 20.1132 5.32735 19.1219 5.65928ZM41.9824 8.1105C41.4708 8.29417 41.0097 8.93042 41.0097 9.4531C41.0097 10.0068 42.1736 10.0708 42.3808 9.52857C42.5352 9.12459 44.9008 8.98538 44.9008 9.38032C44.9008 9.66266 44.288 9.89493 43.5433 9.89493C43.1175 9.89493 42.9552 10.0295 42.9552 10.3834C42.9552 10.7906 43.1175 10.8719 43.928 10.8719C44.4631 10.8719 44.9008 10.9818 44.9008 11.1161C44.9008 11.4933 42.7249 11.4083 42.3341 11.0158C41.9037 10.5835 41.0084 10.795 41.0133 11.3279C41.0211 12.1534 41.4528 12.425 42.9275 12.5323C45.1284 12.6922 46.0796 12.4497 46.272 11.6791C46.3595 11.3289 46.3135 10.8533 46.1698 10.622C45.9933 10.3385 45.9884 10.1216 46.1547 9.95453C46.5689 9.53858 46.2734 8.5814 45.6304 8.25607C45.0285 7.95125 42.6863 7.85795 41.9824 8.1105ZM56.3656 10.0605C55.8116 11.1823 55.3583 12.2086 55.3583 12.341C55.3583 12.7345 56.8177 12.6207 56.9726 12.2152C57.0748 11.948 57.4933 11.8489 58.5199 11.8489C59.5464 11.8489 59.9649 11.948 60.0671 12.2152C60.2077 12.5833 61.6965 12.754 61.6654 12.3984C61.6566 12.2975 61.1865 11.281 60.6206 10.1392L59.5919 8.06312L58.4824 8.04187L57.3729 8.02062L56.3656 10.0605ZM70.6797 10.2843V12.6273L73.092 12.5435C74.4186 12.4973 75.5833 12.3796 75.6801 12.2822C75.8555 12.1056 75.8632 11.729 75.7336 9.659C75.6453 8.25069 75.0887 7.9493 72.5645 7.94466L70.6797 7.94099V10.2843ZM86.1228 8.10415C85.398 8.30907 85.2793 8.63538 85.2752 10.4359C85.2721 11.8584 85.3399 12.1127 85.7864 12.3527C86.551 12.7636 90.3284 12.5618 90.6409 12.0931C90.8979 11.7079 90.8415 8.5687 90.5728 8.29857C90.3636 8.08852 86.738 7.93025 86.1228 8.10415ZM100.72 8.2463C100.665 8.41434 100.563 9.10115 100.494 9.77281C100.425 10.4445 100.298 11.4613 100.212 12.0321C100.062 13.0278 100.081 13.0701 100.689 13.0701C101.038 13.0701 101.323 12.9602 101.323 12.8258C101.323 12.6883 102.007 12.5816 102.889 12.5816C103.751 12.5816 104.523 12.6915 104.606 12.8258C104.688 12.9602 105.027 13.0701 105.358 13.0701H105.961L105.811 10.8108C105.728 9.56838 105.618 8.41434 105.566 8.2463C105.5 8.0299 104.795 7.94099 103.147 7.94099C101.502 7.94099 100.791 8.03039 100.72 8.2463ZM58.9318 9.89493C59.1986 10.6047 59.185 10.6277 58.4987 10.6277C57.6923 10.6277 57.691 10.6252 58.0726 9.78429C58.4374 8.98 58.5955 9.00027 58.9318 9.89493ZM74.5709 9.40645C74.5709 9.54078 73.969 9.65069 73.2333 9.65069C72.4976 9.65069 71.8957 9.54078 71.8957 9.40645C71.8957 9.27212 72.4976 9.16221 73.2333 9.16221C73.969 9.16221 74.5709 9.27212 74.5709 9.40645ZM89.511 9.79357C89.5978 10.1409 89.6007 10.6406 89.5173 10.9041C89.3865 11.3184 89.1788 11.3736 87.9898 11.3108C86.5077 11.2327 86.2847 10.984 86.5921 9.75352C86.7256 9.2196 86.8672 9.16221 88.0467 9.16221C89.2488 9.16221 89.3658 9.21252 89.511 9.79357ZM104.241 10.2613V11.3604H102.997C101.825 11.3604 101.761 11.3284 101.899 10.8108C101.979 10.5087 102.047 10.0139 102.049 9.71175C102.052 9.22376 102.175 9.16221 103.147 9.16221H104.241V10.2613ZM74.5709 11.1447C74.5709 11.2632 73.969 11.3604 73.2333 11.3604C71.7306 11.3604 71.3981 10.9427 72.8077 10.8255C73.9101 10.7339 74.5709 10.8536 74.5709 11.1447ZM40.7665 14.2913C40.7665 14.7773 40.9287 14.7798 73.3549 14.7798C105.781 14.7798 105.943 14.7773 105.943 14.2913C105.943 13.8053 105.781 13.8028 73.3549 13.8028C40.9287 13.8028 40.7665 13.8053 40.7665 14.2913ZM40.9287 16.4081C40.8394 16.4975 40.7665 19.1903 40.7665 22.3921V28.2131H42.2256H43.6848V23.4504V18.6877H47.576H51.4671V23.4504V28.2131H52.8047H54.1423V22.2292V16.2452H47.6166C44.0273 16.2452 41.0177 16.3185 40.9287 16.4081ZM58.6933 16.3969C58.5979 16.4927 58.5199 19.1903 58.5199 22.3921V28.2131L59.5535 28.2112C60.6094 28.209 61.1201 27.8365 67.0342 22.7538C67.3698 22.4654 68.2193 21.7507 68.9219 21.166L70.1992 20.1028L70.107 24.158L70.0151 28.2131H71.3244H72.6341L72.5689 22.2902L72.5037 16.3674L71.6525 16.2953C70.7264 16.2172 70.9988 16.0154 64.1134 21.8753L61.0734 24.4623V20.4147V16.3674L59.9701 16.2951C59.363 16.2553 58.7886 16.3012 58.6933 16.3969ZM76.4355 16.4081C76.3462 16.4975 76.2733 19.1903 76.2733 22.3921V28.2131H77.7324H79.1916V25.8928V23.5725H83.5801C87.9154 23.5725 87.9762 23.5652 88.5657 22.9729C89.1168 22.4197 89.1627 22.1928 89.1627 20.0261C89.1627 18.735 89.0521 17.4708 88.9166 17.2168C88.7814 16.9628 88.2614 16.6409 87.7614 16.5014C86.7723 16.2257 76.6998 16.1424 76.4355 16.4081ZM94.3713 16.5078C93.1923 16.8517 93.0539 17.4806 93.0539 22.4961C93.0539 26.9939 93.0565 27.0168 93.6641 27.6269L94.274 28.2395L99.6141 28.1653C105.901 28.0778 105.741 28.1416 105.899 25.6515L106 24.061H104.634H103.268V25.038V26.0149H99.4986H95.729V22.2228V18.4307L99.4378 18.4981L103.147 18.5655L103.222 19.4815L103.298 20.3974H104.62H105.943L105.94 19.2372C105.935 17.7029 105.506 16.9193 104.478 16.5642C103.478 16.2193 95.5131 16.1749 94.3713 16.5078ZM86.4379 19.9384C86.5267 21.6303 86.5753 21.6105 82.2924 21.6152L79.1916 21.6186V20.0244V18.4305L82.7788 18.4979L86.366 18.5655L86.4379 19.9384Z" fill="#4B89E0"/>
</svg>
