<svg width="18" height="17" viewBox="0 0 18 17" fill="none" xmlns="http://www.w3.org/2000/svg">
<path d="M9.97397 8.62641L17.0963 1.50407C17.3712 1.23859 17.3788 0.800545 17.1133 0.525653C16.8479 0.250762 16.4098 0.243139 16.1349 0.508625C16.1292 0.514179 16.1235 0.519856 16.1179 0.525653L8.99551 7.64799L1.87317 0.525613C1.59828 0.260127 1.16024 0.26775 0.89475 0.542642C0.635751 0.810803 0.635751 1.23591 0.89475 1.50407L8.01709 8.62641L0.89475 15.7487C0.624602 16.0189 0.624602 16.457 0.89475 16.7272C1.16494 16.9973 1.60298 16.9973 1.87317 16.7272L8.99551 9.60483L16.1179 16.7272C16.3927 16.9926 16.8308 16.985 17.0963 16.7101C17.3552 16.442 17.3552 16.0169 17.0963 15.7487L9.97397 8.62641Z" fill="#4B89E0"/>
</svg>
