<svg width="18" height="18" viewBox="0 0 18 18" fill="none" xmlns="http://www.w3.org/2000/svg">
<path fill-rule="evenodd" clip-rule="evenodd" d="M16.7696 1.22989C16.4631 0.92337 15.9661 0.923369 15.6596 1.22989L8.99975 7.88997L2.33989 1.22989C2.03338 0.923369 1.53643 0.92337 1.22991 1.22989C0.923403 1.53641 0.923403 2.03339 1.22991 2.33991L7.88977 8.99998L1.22988 15.6601C0.923372 15.9666 0.923372 16.4636 1.22988 16.7701C1.5364 17.0766 2.03335 17.0766 2.33986 16.7701L8.99975 10.11L15.6596 16.7701C15.9661 17.0766 16.4631 17.0766 16.7696 16.7701C17.0761 16.4636 17.0761 15.9666 16.7696 15.6601L10.1097 8.99998L16.7696 2.33991C17.0761 2.03339 17.0761 1.53641 16.7696 1.22989Z" fill="#333333"/>
</svg>
