<svg width="22" height="22" viewBox="0 0 22 22" fill="none" xmlns="http://www.w3.org/2000/svg">
<path d="M19.5 18.446L16.4022 15.3482C17.4709 14.0453 18.115 12.3764 18.115 10.5575C18.115 6.38532 14.7297 3 10.5575 3C6.38166 3 3 6.38532 3 10.5575C3 14.7297 6.38166 18.115 10.5575 18.115C12.3764 18.115 14.0416 17.4745 15.3445 16.4059L18.4423 19.5C18.7351 19.7928 19.2072 19.7928 19.5 19.5C19.7928 19.2109 19.7928 18.7351 19.5 18.446ZM10.5575 16.6108C7.21609 16.6108 4.50052 13.8952 4.50052 10.5575C4.50052 7.21975 7.21609 4.50052 10.5575 4.50052C13.8952 4.50052 16.6145 7.21975 16.6145 10.5575C16.6145 13.8952 13.8952 16.6108 10.5575 16.6108Z" fill="#333333"/>
</svg>
