<?xml version="1.0" encoding="utf-8"?>
<!-- Generator: Adobe Illustrator 20.1.0, SVG Export Plug-In . SVG Version: 6.00 Build 0)  -->
<svg version="1.1" id="Capa_1" xmlns="http://www.w3.org/2000/svg" xmlns:xlink="http://www.w3.org/1999/xlink" x="0px" y="0px"
	 width="430.7px" height="512px" viewBox="0 0 430.7 512" style="enable-background:new 0 0 430.7 512;" xml:space="preserve">
<style type="text/css">
	.st0{fill:#CDD4DA;}
</style>
<g>
	<path class="st0" d="M430.7,180.6c0-29.8-11.6-57.7-32.6-78.8l-69.2-69.2c-21-21-49-32.6-78.8-32.6h-15.3h-145
		C65.7,0,46.1,19.6,46.1,43.7v2.4h-2.4C19.6,46.1,0,65.7,0,89.7v378.6C0,492.4,19.6,512,43.7,512h297.2c24.1,0,43.7-19.6,43.7-43.7
		v-2.4h2.4c24.1,0,43.7-19.6,43.7-43.7V195.9V180.6L430.7,180.6C430.7,180.6,430.7,180.6,430.7,180.6z M318.2,43.2l69.2,69.2
		c10.3,10.3,17.9,22.4,22.7,35.7c-11.8-11.2-27.8-18.1-45.3-18.1h-35.5c-15.8,0-28.7-12.9-28.7-28.7V65.9c0-17.5-6.9-33.5-18.1-45.3
		C295.8,25.3,308,33,318.2,43.2z M415.7,422.3c0,15.8-12.9,28.7-28.7,28.7h-80.7c-4.1,0-7.5,3.4-7.5,7.5s3.4,7.5,7.5,7.5h63.3v2.4
		c0,15.8-12.9,28.7-28.7,28.7H43.7C27.9,497,15,484.1,15,468.3V89.7c0-15.8,12.9-28.7,28.7-28.7h2.4v361.2
		c0,24.1,19.6,43.7,43.7,43.7h186.5c4.1,0,7.5-3.4,7.5-7.5s-3.4-7.5-7.5-7.5H89.7c-15.8,0-28.7-12.9-28.7-28.7V43.7
		C61.1,27.9,73.9,15,89.7,15h145c28,0,50.9,22.8,50.9,50.9v35.5c0,24.1,19.6,43.7,43.7,43.7h35.5c28,0,50.9,22.8,50.9,50.9V422.3z"
		/>
	<path class="st0" d="M220.3,341.4c4.8,4.8,11.2,7.5,18,7.5c6.8,0,13.2-2.7,18-7.5l52.7-52.7c4.5-4.5,5.9-11.3,3.4-17.2
		s-8.2-9.7-14.6-9.7h-16.1v-98.3c0-8.7-7.1-15.8-15.8-15.8h-55.5c-8.7,0-15.8,7.1-15.8,15.8v38.8c0,4.1,3.4,7.5,7.5,7.5
		s7.5-3.4,7.5-7.5v-38.8c0-0.4,0.3-0.8,0.8-0.8h55.5c0.4,0,0.8,0.3,0.8,0.8v105.8c0,4.1,3.4,7.5,7.5,7.5H298c0.2,0,0.5,0,0.7,0.5
		s0,0.7-0.2,0.8l-52.7,52.7c-2,2-4.6,3.1-7.4,3.1s-5.4-1.1-7.4-3.1l-52.7-52.7c-0.1-0.1-0.4-0.4-0.2-0.8s0.5-0.5,0.7-0.5h23.6
		c4.1,0,7.5-3.4,7.5-7.5v-37c0-4.1-3.4-7.5-7.5-7.5s-7.5,3.4-7.5,7.5v29.5h-16.1c-6.4,0-12.1,3.8-14.6,9.7
		c-2.4,5.9-1.1,12.7,3.4,17.2L220.3,341.4z"/>
	<path class="st0" d="M302.7,357.6H174c-13,0-23.6,10.6-23.6,23.6v0.4c0,13,10.6,23.6,23.6,23.6h128.8c13,0,23.6-10.6,23.6-23.6
		v-0.4C326.3,368.2,315.8,357.6,302.7,357.6z M311.3,381.7c0,4.7-3.9,8.6-8.6,8.6H174c-4.7,0-8.6-3.9-8.6-8.6v-0.4
		c0-4.7,3.9-8.6,8.6-8.6h128.8c4.7,0,8.6,3.9,8.6,8.6V381.7z"/>
</g>
</svg>
