<?xml version="1.0" encoding="utf-8"?>
<!-- Generator: Adobe Illustrator 20.1.0, SVG Export Plug-In . SVG Version: 6.00 Build 0)  -->
<svg version="1.1" id="Capa_1" xmlns="http://www.w3.org/2000/svg" xmlns:xlink="http://www.w3.org/1999/xlink" x="0px" y="0px"
	 width="493.4px" height="219.3px" viewBox="0 0 493.4 219.3" style="enable-background:new 0 0 493.4 219.3;" xml:space="preserve"
	>
<style type="text/css">
	.st0{fill:#FFFFFF;}
</style>
<g>
	<path class="st0" d="M0,82.2L0,137c0,2.7,0.9,4.9,2.6,6.6c1.7,1.7,3.9,2.6,6.6,2.6h356.3v64c0,4,1.8,6.8,5.4,8.3
		c3.6,1.5,6.9,1,10-1.4L490.5,117c1.9-1.9,2.9-4.1,2.9-6.6c0-2.7-0.9-4.9-2.9-6.9L380.9,2.5c-3-2.7-6.4-3.2-10-1.7
		c-3.6,1.7-5.4,4.5-5.4,8.3v64l-356.3,0c-2.7,0-4.9,0.9-6.6,2.6C0.9,77.3,0,79.5,0,82.2z"/>
</g>
</svg>
