<?xml version="1.0" encoding="utf-8"?>
<!-- Generator: Adobe Illustrator 24.0.2, SVG Export Plug-In . SVG Version: 6.00 Build 0)  -->
<svg version="1.1" id="Layer_1" xmlns="http://www.w3.org/2000/svg" xmlns:xlink="http://www.w3.org/1999/xlink" x="0px" y="0px"
	 viewBox="0 0 13 13" style="enable-background:new 0 0 13 13;" xml:space="preserve">
<path d="M6.5,1C3.5,1,1,3.5,1,6.5S3.5,12,6.5,12S12,9.6,12,6.5S9.6,1,6.5,1z M9.7,4.8l-4,4.2C5.6,9,5.6,9,5.5,9S5.3,9,5.3,8.9
	L3.4,6.8l0,0c0-0.1-0.1-0.1-0.1-0.2c0,0,0-0.1,0.1-0.2l0.3-0.4C3.8,6,3.9,6,4,6.1l0,0l1.4,1.5c0,0.1,0.1,0.1,0.2,0l3.3-3.5h0
	C9.1,4,9.2,4,9.3,4.1l0.4,0.3C9.8,4.5,9.8,4.7,9.7,4.8z"/>
</svg>
