<?xml version="1.0" encoding="utf-8"?>
<!-- Generator: Adobe Illustrator 20.1.0, SVG Export Plug-In . SVG Version: 6.00 Build 0)  -->
<svg version="1.1" id="Capa_1" xmlns="http://www.w3.org/2000/svg" xmlns:xlink="http://www.w3.org/1999/xlink" x="0px" y="0px"
	 width="550.8px" height="432.8px" viewBox="0 0 550.8 432.8" style="enable-background:new 0 0 550.8 432.8;" xml:space="preserve"
	>
<style type="text/css">
	.st0{fill:#FFFFFF;}
</style>
<g>
	<g>
		<path class="st0" d="M501.6,432.8c12.4,0,23.1-4.1,32.2-12.2l-156-156.1c-3.7,2.7-7.4,5.3-10.8,7.8c-11.7,8.6-21.2,15.3-28.4,20.1
			c-7.3,4.8-17,9.7-29,14.8c-12.1,5-23.4,7.5-33.8,7.5h-0.3h-0.3c-10.5,0-21.7-2.5-33.8-7.5c-12.1-5-21.8-9.9-29-14.8
			c-7.3-4.8-16.8-11.5-28.4-20.1c-3.3-2.4-6.9-5-10.8-7.8L16.9,420.6c9.1,8.1,19.9,12.2,32.2,12.2H501.6z"/>
		<path class="st0" d="M31,166.3c-11.7-7.8-22-16.7-31-26.7V377l137.5-137.5C110,220.2,74.6,195.9,31,166.3z"/>
		<path class="st0" d="M520.1,166.3c-41.9,28.3-77.4,52.7-106.8,73.2L550.8,377V139.5C542,149.4,531.7,158.3,520.1,166.3z"/>
		<path class="st0" d="M501.6,0H49.2C33.4,0,21.3,5.3,12.8,16C4.3,26.6,0,40,0,55.9c0,12.9,5.6,26.9,16.9,42
			c11.3,15.1,23.3,26.9,36,35.5c7,4.9,28,19.5,63,43.8c18.9,13.1,35.4,24.5,49.5,34.4c12.1,8.4,22.4,15.7,31,21.7
			c1,0.7,2.5,1.8,4.6,3.3c2.2,1.6,5,3.6,8.5,6.1c6.7,4.8,12.2,8.7,16.6,11.7c4.4,3,9.7,6.3,16,10c6.2,3.7,12.1,6.5,17.7,8.3
			c5.5,1.8,10.7,2.8,15.4,2.8h0.3h0.3c4.7,0,9.8-0.9,15.4-2.8c5.5-1.8,11.4-4.6,17.7-8.3c6.2-3.7,11.6-7,16-10
			c4.4-3,9.9-6.9,16.6-11.7c3.5-2.5,6.3-4.5,8.5-6.1c2.1-1.5,3.6-2.6,4.6-3.3c6.7-4.7,17.1-11.9,31.1-21.6
			c25.5-17.7,63-43.8,112.7-78.3c15-10.4,27.5-23.1,37.5-37.8c10-14.7,15.1-30.2,15.1-46.4c0-13.5-4.9-25.1-14.6-34.7
			C526.5,4.8,514.9,0,501.6,0z"/>
	</g>
</g>
</svg>
