<svg width="14" height="12" viewBox="0 0 14 12" fill="none" xmlns="http://www.w3.org/2000/svg">
<g opacity="0.3">
<path d="M11.9295 11C12.1992 11 12.4329 10.9055 12.6316 10.719L9.2321 7.11303C9.15054 7.17498 9.07149 7.23522 8.99681 7.2925C8.7424 7.49132 8.53592 7.64646 8.37737 7.75762C8.21885 7.86905 8.00793 7.98262 7.74463 8.09857C7.48117 8.21466 7.23572 8.27252 7.00802 8.27252H7.00135H6.99469C6.76697 8.27252 6.52152 8.21468 6.25808 8.09857C5.99463 7.98262 5.78371 7.86905 5.62533 7.75762C5.4668 7.64646 5.26044 7.49134 5.0059 7.2925C4.93497 7.23735 4.85631 7.17683 4.77126 7.11206L1.37109 10.719C1.56975 10.9055 1.80361 11 2.07331 11H11.9295Z" fill="white"/>
<path d="M1.67636 4.84234C1.42197 4.66245 1.19639 4.45643 1 4.22437V9.71055L3.99632 6.53239C3.39688 6.0885 2.62454 5.5258 1.67636 4.84234Z" fill="white"/>
<path d="M12.3294 4.84234C11.4174 5.4971 10.6423 6.06077 10.0039 6.53366L12.999 9.71069V4.22437C12.807 4.45176 12.5838 4.65765 12.3294 4.84234Z" fill="white"/>
<path d="M11.9275 1H2.07127C1.72742 1 1.46306 1.12316 1.27787 1.36923C1.09252 1.61541 1 1.92329 1 2.29251C1 2.59076 1.12278 2.91391 1.36823 3.26206C1.61368 3.61008 1.87486 3.88343 2.15164 4.08227C2.30337 4.19598 2.76094 4.53339 3.52435 5.09438C3.93645 5.39729 4.29483 5.66131 4.60281 5.88915C4.86531 6.08315 5.0917 6.25116 5.27862 6.39059C5.30008 6.40656 5.33382 6.43216 5.37861 6.46613C5.42686 6.50289 5.48793 6.54954 5.56326 6.60724C5.70832 6.71853 5.82884 6.80848 5.92482 6.8772C6.02068 6.94595 6.13681 7.02273 6.27305 7.108C6.40919 7.19314 6.53759 7.25717 6.6581 7.29976C6.77864 7.34232 6.89022 7.36367 6.99287 7.36367H6.99954H7.0062C7.10883 7.36367 7.22043 7.34232 7.34099 7.29976C7.46148 7.25717 7.58978 7.19328 7.72602 7.108C7.86213 7.02273 7.97811 6.94578 8.07427 6.8772C8.17026 6.80848 8.29077 6.71855 8.43586 6.60724C8.51104 6.54954 8.5721 6.50287 8.62035 6.46624C8.66516 6.43214 8.69889 6.4067 8.72048 6.39059C8.86609 6.28312 9.093 6.1158 9.39807 5.89111C9.9532 5.482 10.7707 4.87985 11.8541 4.08227C12.18 3.84087 12.4522 3.54956 12.671 3.20875C12.8894 2.86795 12.9989 2.51046 12.9989 2.1364C12.9989 1.82388 12.8927 1.55646 12.6809 1.33373C12.4688 1.11128 12.2176 1 11.9275 1Z" fill="white"/>
</g>
</svg>
