<svg width="15" height="14" viewBox="0 0 15 14" fill="none" xmlns="http://www.w3.org/2000/svg">
<g opacity="0.3">
<path d="M11.4803 9.34481L9.50385 8.73665C9.45657 8.72199 9.40703 8.71448 9.35714 8.71436H5.64286C5.59297 8.71446 5.54343 8.72199 5.49615 8.73665L3.51968 9.34481C2.01407 9.80656 0.99856 11.107 1 12.5715C1 12.8082 1.20787 13.0001 1.4643 13.0001H13.5357C13.7921 13.0001 14 12.8082 14 12.5715C14.0014 11.107 12.9859 9.80656 11.4803 9.34481Z" fill="white"/>
<path d="M7.50055 1C5.96205 1 4.71484 2.15127 4.71484 3.57143V5.28572C4.71637 6.7053 5.96267 7.85574 7.50055 7.85715C9.03843 7.85574 10.2847 6.7053 10.2863 5.28572V3.57143C10.2863 2.15127 9.03905 1 7.50055 1Z" fill="white"/>
</g>
</svg>
