<svg width="14" height="14" viewBox="0 0 14 14" fill="none" xmlns="http://www.w3.org/2000/svg">
<g opacity="0.3">
<path d="M12.6853 9.80678L11.0072 8.13215C10.4078 7.53406 9.38894 7.77332 9.14921 8.55081C8.9694 9.0891 8.37006 9.38815 7.83065 9.26851C6.63197 8.96946 5.01374 7.41445 4.71407 6.15847C4.53427 5.62017 4.89387 5.02209 5.43328 4.84269C6.21243 4.60345 6.45216 3.58671 5.85282 2.98863L4.17466 1.31399C3.69519 0.895335 2.97598 0.895335 2.55644 1.31399L1.41769 2.45035C0.278935 3.64652 1.53755 6.81636 4.35447 9.62735C7.17138 12.4383 10.3479 13.7542 11.5466 12.558L12.6853 11.4216C13.1049 10.9431 13.1049 10.2254 12.6853 9.80678Z" fill="white"/>
</g>
</svg>
